<svg width="51" height="45" viewBox="0 0 51 45" fill="none" xmlns="http://www.w3.org/2000/svg">
<path fill-rule="evenodd" clip-rule="evenodd" d="M39.6822 13.6053H50.0837C50.0837 5.25379 45.0796 0.375 36.6011 0.375H14.3996C5.92107 0.375 0.916992 5.25379 0.916992 13.4987V31.5013C0.916992 39.7462 5.92107 44.625 14.3996 44.625H36.6011C45.0796 44.625 50.0837 39.7462 50.0837 31.5013V30.7343H39.6822C34.8548 30.7343 30.9414 26.9189 30.9414 22.2124C30.9414 17.5059 34.8548 13.6905 39.6822 13.6905V13.6053ZM39.6822 17.2697H48.2481C49.2618 17.2697 50.0837 18.0709 50.0837 19.0593V25.2803C50.0719 26.2638 49.2569 27.0584 48.2481 27.0699H39.8788C37.435 27.1019 35.298 25.4706 34.7437 23.1498C34.4661 21.7091 34.8558 20.2225 35.8083 19.0884C36.7608 17.9542 38.1788 17.2885 39.6822 17.2697ZM40.0537 23.8102H40.8622C41.9001 23.8102 42.7414 22.9899 42.7414 21.978C42.7414 20.9661 41.9001 20.1458 40.8622 20.1458H40.0537C39.5573 20.1401 39.0792 20.3284 38.7261 20.6686C38.3731 21.0089 38.1744 21.4727 38.1744 21.9567C38.1743 22.9721 39.0122 23.7986 40.0537 23.8102ZM12.564 13.6053H26.44C27.4778 13.6053 28.3192 12.785 28.3192 11.773C28.3192 10.7611 27.4778 9.94084 26.44 9.94084H12.564C11.5346 9.94077 10.6967 10.7482 10.6848 11.7517C10.6847 12.7671 11.5226 13.5936 12.564 13.6053Z" fill="white"/>
</svg>
