<svg width="16" height="18" viewBox="0 0 16 18" fill="none" xmlns="http://www.w3.org/2000/svg">
<path fill-rule="evenodd" clip-rule="evenodd" d="M0.916992 7.59809C0.916992 3.76487 4.12023 0.666626 7.99486 0.666626C11.8804 0.666626 15.0837 3.76487 15.0837 7.59809C15.0837 9.5297 14.3812 11.323 13.2249 12.8429C11.9493 14.5196 10.3771 15.9803 8.60744 17.127C8.20242 17.392 7.83689 17.412 7.39237 17.127C5.61261 15.9803 4.0404 14.5196 2.77574 12.8429C1.61865 11.323 0.916992 9.5297 0.916992 7.59809ZM5.66218 7.81392C5.66218 9.09805 6.71004 10.108 7.99486 10.108C9.28053 10.108 10.3385 9.09805 10.3385 7.81392C10.3385 6.53979 9.28053 5.48065 7.99486 5.48065C6.71004 5.48065 5.66218 6.53979 5.66218 7.81392Z" fill="#212121"/>
</svg>
