<svg width="280" height="273" viewBox="0 0 280 273" fill="none" xmlns="http://www.w3.org/2000/svg">
<g clip-path="url(#clip0_1470_17476)">
<path d="M177.755 61.3969H102.308C100.588 61.399 98.94 62.0821 97.7242 63.2965C96.5085 64.5108 95.8245 66.1572 95.8224 67.8745V235.365L94.9578 235.628L76.4492 241.29C75.572 241.557 74.6246 241.466 73.8148 241.036C73.0051 240.606 72.3992 239.872 72.1302 238.997L17.0757 59.3715C16.8078 58.4954 16.8991 57.5488 17.3296 56.7398C17.7601 55.9309 18.4945 55.3258 19.3715 55.0574L47.8931 46.3342L130.578 21.0541L159.1 12.3309C159.534 12.1974 159.99 12.1508 160.442 12.1936C160.894 12.2365 161.334 12.368 161.735 12.5806C162.136 12.7932 162.491 13.0827 162.78 13.4326C163.069 13.7824 163.286 14.1858 163.419 14.6196L177.492 60.5332L177.755 61.3969Z" fill="#F2F2F2"/>
<path d="M194.22 60.533L177.259 5.19663C176.977 4.27462 176.515 3.41719 175.901 2.67333C175.287 1.92947 174.532 1.31376 173.68 0.861389C172.828 0.409015 171.894 0.128837 170.933 0.0368764C169.973 -0.0550841 169.003 0.0429748 168.08 0.32544L127.98 12.5855L45.2996 37.8699L5.19995 50.1342C3.33713 50.7056 1.77736 51.9919 0.863023 53.7107C-0.051319 55.4296 -0.245538 57.4406 0.323005 59.3023L58.2914 248.419C58.7532 249.922 59.6852 251.238 60.9504 252.173C62.2156 253.108 63.7475 253.613 65.3214 253.614C66.0498 253.615 66.7741 253.506 67.47 253.291L94.9583 244.887L95.823 244.619V243.717L94.9583 243.98L67.215 252.466C65.5707 252.966 63.7947 252.795 62.2767 251.99C60.7586 251.184 59.6224 249.81 59.1172 248.169L1.15328 59.0475C0.902991 58.2343 0.81576 57.3798 0.896575 56.5329C0.977391 55.6859 1.22466 54.8633 1.62424 54.1119C2.02382 53.3606 2.56786 52.6954 3.22519 52.1544C3.88252 51.6134 4.64023 51.2072 5.45495 50.9591L45.5546 38.6947L128.236 13.4146L168.335 1.15027C168.953 0.961898 169.596 0.865852 170.242 0.86525C171.628 0.86836 172.978 1.31487 174.092 2.13937C175.206 2.96387 176.026 4.12305 176.433 5.44711L193.316 60.533L193.584 61.3967H194.483L194.22 60.533Z" fill="#BDBDBD"/>
<path d="M53.0404 55.1985C52.2072 55.1979 51.396 54.9306 50.7259 54.4358C50.0559 53.941 49.5622 53.2447 49.3174 52.4491L43.7487 34.2807C43.599 33.7927 43.5471 33.28 43.5959 32.7719C43.6446 32.2638 43.7931 31.7703 44.0328 31.3195C44.2726 30.8688 44.5989 30.4696 44.9931 30.1448C45.3873 29.8201 45.8416 29.576 46.3303 29.4267L122.396 6.16597C123.383 5.86521 124.449 5.96779 125.36 6.45119C126.271 6.93459 126.953 7.75933 127.256 8.74438L132.825 26.913C133.125 27.8986 133.023 28.9632 132.539 29.8733C132.055 30.7833 131.229 31.4644 130.243 31.7672L54.1772 55.0279C53.8089 55.1409 53.4258 55.1984 53.0404 55.1985V55.1985Z" fill="url(#paint0_linear_1470_17476)"/>
<path d="M82.2113 19.4134C86.9868 19.4134 90.8581 15.5465 90.8581 10.7765C90.8581 6.0065 86.9868 2.13965 82.2113 2.13965C77.4358 2.13965 73.5645 6.0065 73.5645 10.7765C73.5645 15.5465 77.4358 19.4134 82.2113 19.4134Z" fill="url(#paint1_linear_1470_17476)"/>
<path d="M82.2108 16.2456C85.2348 16.2456 87.6862 13.797 87.6862 10.7765C87.6862 7.75599 85.2348 5.30737 82.2108 5.30737C79.1868 5.30737 76.7354 7.75599 76.7354 10.7765C76.7354 13.797 79.1868 16.2456 82.2108 16.2456Z" fill="white"/>
<path d="M260.545 251.408H114.413C113.439 251.407 112.505 251.02 111.816 250.331C111.127 249.643 110.739 248.71 110.738 247.737V72.8406C110.739 71.8674 111.127 70.9344 111.816 70.2462C112.505 69.5581 113.439 69.171 114.413 69.1699H260.545C261.519 69.171 262.453 69.5581 263.142 70.2463C263.831 70.9344 264.218 71.8674 264.219 72.8406V247.737C264.218 248.71 263.831 249.643 263.142 250.331C262.453 251.02 261.519 251.407 260.545 251.408V251.408Z" fill="#E6E6E6"/>
<path d="M193.316 60.5332H102.308C100.359 60.536 98.4915 61.3103 97.1138 62.6865C95.736 64.0626 94.9608 65.9283 94.958 67.8745V243.98L95.8227 243.717V67.8745C95.8248 66.1572 96.5087 64.5108 97.7244 63.2965C98.9402 62.0821 100.588 61.399 102.308 61.3969H193.584L193.316 60.5332ZM272.65 60.5332H102.308C100.359 60.536 98.4915 61.3103 97.1138 62.6865C95.736 64.0626 94.9608 65.9283 94.958 67.8745V265.659C94.9608 267.605 95.736 269.471 97.1138 270.847C98.4915 272.223 100.359 272.997 102.308 273H272.65C274.599 272.997 276.467 272.223 277.844 270.847C279.222 269.471 279.997 267.605 280 265.659V67.8745C279.997 65.9283 279.222 64.0626 277.844 62.6865C276.467 61.3103 274.599 60.536 272.65 60.5332V60.5332ZM279.135 265.659C279.133 267.376 278.449 269.023 277.234 270.237C276.018 271.451 274.37 272.134 272.65 272.136H102.308C100.588 272.134 98.9402 271.451 97.7244 270.237C96.5087 269.023 95.8248 267.376 95.8227 265.659V67.8745C95.8248 66.1572 96.5087 64.5108 97.7244 63.2965C98.9402 62.0821 100.588 61.399 102.308 61.3969H272.65C274.37 61.399 276.018 62.0821 277.234 63.2965C278.449 64.5108 279.133 66.1572 279.135 67.8745V265.659Z" fill="#BDBDBD"/>
<path d="M227.254 79.5343H147.704C146.672 79.5331 145.683 79.1233 144.953 78.3947C144.224 77.666 143.814 76.6781 143.812 75.6477V56.6466C143.814 55.6162 144.224 54.6283 144.953 53.8996C145.683 53.171 146.672 52.7612 147.704 52.76H227.254C228.286 52.7612 229.275 53.171 230.005 53.8996C230.734 54.6283 231.144 55.6162 231.145 56.6466V75.6477C231.144 76.6781 230.734 77.666 230.005 78.3947C229.275 79.1233 228.286 79.5331 227.254 79.5343V79.5343Z" fill="url(#paint2_linear_1470_17476)"/>
<path d="M187.479 54.0555C192.254 54.0555 196.126 50.1886 196.126 45.4186C196.126 40.6486 192.254 36.7817 187.479 36.7817C182.703 36.7817 178.832 40.6486 178.832 45.4186C178.832 50.1886 182.703 54.0555 187.479 54.0555Z" fill="url(#paint3_linear_1470_17476)"/>
<path d="M187.479 50.6793C190.387 50.6793 192.745 48.324 192.745 45.4186C192.745 42.5132 190.387 40.158 187.479 40.158C184.57 40.158 182.212 42.5132 182.212 45.4186C182.212 48.324 184.57 50.6793 187.479 50.6793Z" fill="white"/>
</g>
<defs>
<linearGradient id="paint0_linear_1470_17476" x1="132.994" y1="55.1985" x2="42.7173" y2="7.63028" gradientUnits="userSpaceOnUse">
<stop stop-color="#1BAC4B"/>
<stop offset="1" stop-color="#46D375"/>
</linearGradient>
<linearGradient id="paint1_linear_1470_17476" x1="90.8581" y1="19.4134" x2="70.2839" y2="13.4412" gradientUnits="userSpaceOnUse">
<stop stop-color="#1BAC4B"/>
<stop offset="1" stop-color="#46D375"/>
</linearGradient>
<linearGradient id="paint2_linear_1470_17476" x1="231.145" y1="79.5343" x2="171.679" y2="23.2947" gradientUnits="userSpaceOnUse">
<stop stop-color="#1BAC4B"/>
<stop offset="1" stop-color="#46D375"/>
</linearGradient>
<linearGradient id="paint3_linear_1470_17476" x1="196.126" y1="54.0555" x2="175.551" y2="48.0833" gradientUnits="userSpaceOnUse">
<stop stop-color="#1BAC4B"/>
<stop offset="1" stop-color="#46D375"/>
</linearGradient>
<clipPath id="clip0_1470_17476">
<rect width="280" height="273" fill="white"/>
</clipPath>
</defs>
</svg>
