<svg width="20" height="20" viewBox="0 0 20 20" fill="none" xmlns="http://www.w3.org/2000/svg">
<path d="M0 6.66667C0 2.98477 2.98477 0 6.66667 0H13.3333C17.0152 0 20 2.98477 20 6.66667V13.3333C20 17.0152 17.0152 20 13.3333 20H6.66667C2.98477 20 0 17.0152 0 13.3333V6.66667Z" fill="#1BAC4B"/>
<path fill-rule="evenodd" clip-rule="evenodd" d="M15.0509 6.61612C15.539 7.10427 15.539 7.89573 15.0509 8.38388L10.0509 13.3839C9.56272 13.872 8.77126 13.872 8.28311 13.3839L5.78311 10.8839C5.29495 10.3957 5.29495 9.60427 5.78311 9.11612C6.27126 8.62796 7.06272 8.62796 7.55088 9.11612L9.16699 10.7322L13.2831 6.61612C13.7713 6.12796 14.5627 6.12796 15.0509 6.61612Z" fill="white"/>
</svg>
