<svg width="21" height="20" viewBox="0 0 21 20" fill="none" xmlns="http://www.w3.org/2000/svg">
<path d="M0.5 6.66667C0.5 2.98477 3.48477 0 7.16667 0H13.8333C17.5152 0 20.5 2.98477 20.5 6.66667V13.3333C20.5 17.0152 17.5152 20 13.8333 20H7.16667C3.48477 20 0.5 17.0152 0.5 13.3333V6.66667Z" fill="#1BAC4B"/>
<path fill-rule="evenodd" clip-rule="evenodd" d="M15.5509 6.61612C16.039 7.10427 16.039 7.89573 15.5509 8.38388L10.5509 13.3839C10.0627 13.872 9.27126 13.872 8.78311 13.3839L6.28311 10.8839C5.79495 10.3957 5.79495 9.60427 6.28311 9.11612C6.77126 8.62796 7.56272 8.62796 8.05088 9.11612L9.66699 10.7322L13.7831 6.61612C14.2713 6.12796 15.0627 6.12796 15.5509 6.61612Z" fill="white"/>
</svg>
