<svg width="27" height="13" viewBox="0 0 27 13" fill="none" xmlns="http://www.w3.org/2000/svg">
<path opacity="0.35" d="M2.66667 0.5H22.3333C23.53 0.5 24.5 1.47005 24.5 2.66667V10.3333C24.5 11.53 23.5299 12.5 22.3333 12.5H2.66667C1.47005 12.5 0.5 11.53 0.5 10.3333V2.66667C0.5 1.47005 1.47005 0.5 2.66667 0.5Z" stroke="black"/>
<path opacity="0.4" d="M25.6504 5V9C26.4551 8.66122 26.9784 7.87313 26.9784 7C26.9784 6.12687 26.4551 5.33878 25.6504 5" fill="black"/>
<path d="M2.2998 3.66659C2.2998 2.93021 2.89676 2.33325 3.63314 2.33325H21.1664C21.9028 2.33325 22.4998 2.93021 22.4998 3.66659V9.32992C22.4998 10.0663 21.9028 10.6633 21.1664 10.6633H3.63314C2.89676 10.6633 2.2998 10.0663 2.2998 9.32992V3.66659Z" fill="black"/>
</svg>
