<svg width="28" height="28" viewBox="0 0 28 28" fill="none" xmlns="http://www.w3.org/2000/svg">
<path d="M23.333 14.3202C23.333 14.7632 23.0038 15.1293 22.5767 15.1872L22.458 15.1952L4.95801 15.1952C4.47476 15.1952 4.08301 14.8034 4.08301 14.3202C4.08301 13.8772 4.41219 13.5111 4.83928 13.4532L4.95801 13.4452L22.458 13.4452C22.9413 13.4452 23.333 13.8369 23.333 14.3202Z" fill="#212121"/>
<path d="M12.634 20.7286C12.9764 21.0696 12.9776 21.6236 12.6367 21.9661C12.3267 22.2774 11.8406 22.3067 11.4975 22.0532L11.3992 21.9687L4.34088 14.9407C4.02864 14.6298 4.00024 14.142 4.25568 13.7989L4.34083 13.7007L11.3992 6.67151C11.7416 6.33051 12.2956 6.33165 12.6366 6.67407C12.9466 6.98535 12.9738 7.47152 12.719 7.81354L12.634 7.9115L6.19867 14.321L12.634 20.7286Z" fill="#212121"/>
</svg>
