<svg width="28" height="28" viewBox="0 0 28 28" fill="none" xmlns="http://www.w3.org/2000/svg">
<path d="M23.333 14.3199C23.333 14.7629 23.0038 15.129 22.5767 15.187L22.458 15.1949L4.95801 15.1949C4.47476 15.1949 4.08301 14.8032 4.08301 14.3199C4.08301 13.877 4.41219 13.5109 4.83928 13.4529L4.95801 13.4449L22.458 13.4449C22.9413 13.4449 23.333 13.8367 23.333 14.3199Z" fill="#212121"/>
<path d="M12.634 20.7284C12.9764 21.0694 12.9776 21.6234 12.6367 21.9658C12.3267 22.2771 11.8406 22.3064 11.4975 22.053L11.3992 21.9685L4.34088 14.9405C4.02864 14.6296 4.00024 14.1418 4.25568 13.7987L4.34083 13.7004L11.3992 6.67126C11.7416 6.33026 12.2956 6.33141 12.6366 6.67382C12.9466 6.98511 12.9738 7.47128 12.719 7.8133L12.634 7.91126L6.19867 14.3208L12.634 20.7284Z" fill="#212121"/>
</svg>
