<svg width="24" height="25" viewBox="0 0 24 25" fill="none" xmlns="http://www.w3.org/2000/svg">
<path fill-rule="evenodd" clip-rule="evenodd" d="M17.857 20.9171C19.73 20.9171 21.249 19.3991 21.25 17.5261V17.5241V14.8241C20.013 14.8241 19.011 13.8221 19.01 12.5851C19.01 11.3491 20.012 10.3461 21.249 10.3461H21.25V7.64612C21.252 5.77212 19.735 4.25212 17.862 4.25012H17.856H6.144C4.27 4.25012 2.751 5.76812 2.75 7.64212V7.64312V10.4331C3.944 10.3911 4.945 11.3251 4.987 12.5191C4.988 12.5411 4.989 12.5631 4.989 12.5851C4.99 13.8201 3.991 14.8221 2.756 14.8241H2.75V17.5241C2.749 19.3971 4.268 20.9171 6.141 20.9171H6.142H17.857Z" stroke="#212121" stroke-width="1.5" stroke-linecap="round" stroke-linejoin="round"/>
<path fill-rule="evenodd" clip-rule="evenodd" d="M12.3716 9.56315L12.9876 10.8102C13.0476 10.9322 13.1636 11.0172 13.2986 11.0372L14.6756 11.2382C15.0166 11.2882 15.1516 11.7062 14.9056 11.9452L13.9096 12.9152C13.8116 13.0102 13.7676 13.1472 13.7896 13.2822L14.0246 14.6522C14.0826 14.9912 13.7276 15.2492 13.4236 15.0892L12.1926 14.4422C12.0716 14.3782 11.9276 14.3782 11.8066 14.4422L10.5766 15.0892C10.2716 15.2492 9.91658 14.9912 9.97458 14.6522L10.2096 13.2822C10.2326 13.1472 10.1876 13.0102 10.0896 12.9152L9.09458 11.9452C8.84858 11.7062 8.98358 11.2882 9.32358 11.2382L10.7006 11.0372C10.8356 11.0172 10.9526 10.9322 11.0126 10.8102L11.6276 9.56315C11.7796 9.25515 12.2196 9.25515 12.3716 9.56315Z" stroke="#212121" stroke-width="1.5" stroke-linecap="round" stroke-linejoin="round"/>
</svg>
