<svg width="28" height="28" viewBox="0 0 28 28" fill="none" xmlns="http://www.w3.org/2000/svg">
<path fill-rule="evenodd" clip-rule="evenodd" d="M13.8183 25.2723C9.51119 25.2723 5.83301 24.602 5.83301 21.9178C5.83301 19.2335 9.48786 16.7556 13.8183 16.7556C18.1254 16.7556 21.8036 19.2095 21.8036 21.8938C21.8036 24.5769 18.1488 25.2723 13.8183 25.2723Z" stroke="#212121" stroke-width="1.5" stroke-linecap="round" stroke-linejoin="round"/>
<path fill-rule="evenodd" clip-rule="evenodd" d="M13.8099 13.036C16.6364 13.036 18.9273 10.745 18.9273 7.91853C18.9273 5.09202 16.6364 2.80005 13.8099 2.80005C10.9834 2.80005 8.69144 5.09202 8.69144 7.91853C8.68189 10.7355 10.9569 13.0264 13.7739 13.036C13.7866 13.036 13.7983 13.036 13.8099 13.036Z" stroke="#212121" stroke-width="1.5" stroke-linecap="round" stroke-linejoin="round"/>
</svg>
