<svg width="28" height="28" viewBox="0 0 28 28" fill="none" xmlns="http://www.w3.org/2000/svg">
<path d="M23.333 14.3203C23.333 14.7633 23.0038 15.1294 22.5767 15.1873L22.458 15.1953L4.95801 15.1953C4.47476 15.1953 4.08301 14.8036 4.08301 14.3203C4.08301 13.8773 4.41219 13.5112 4.83928 13.4533L4.95801 13.4453L22.458 13.4453C22.9413 13.4453 23.333 13.8371 23.333 14.3203Z" fill="#212121"/>
<path d="M12.634 20.7286C12.9764 21.0696 12.9776 21.6236 12.6367 21.9661C12.3267 22.2774 11.8406 22.3067 11.4975 22.0532L11.3992 21.9687L4.34088 14.9407C4.02864 14.6298 4.00024 14.142 4.25568 13.7989L4.34083 13.7007L11.3992 6.67151C11.7416 6.33051 12.2956 6.33165 12.6366 6.67407C12.9466 6.98535 12.9738 7.47152 12.719 7.81354L12.634 7.9115L6.19867 14.321L12.634 20.7286Z" fill="#212121"/>
</svg>
