<svg width="20" height="20" viewBox="0 0 20 20" fill="none" xmlns="http://www.w3.org/2000/svg">
<path fill-rule="evenodd" clip-rule="evenodd" d="M13.3333 2.5H6.66667C4.36548 2.5 2.5 4.36548 2.5 6.66667V13.3333C2.5 15.6345 4.36548 17.5 6.66667 17.5H13.3333C15.6345 17.5 17.5 15.6345 17.5 13.3333V6.66667C17.5 4.36548 15.6345 2.5 13.3333 2.5ZM6.66667 0C2.98477 0 0 2.98477 0 6.66667V13.3333C0 17.0152 2.98477 20 6.66667 20H13.3333C17.0152 20 20 17.0152 20 13.3333V6.66667C20 2.98477 17.0152 0 13.3333 0H6.66667Z" fill="#1BAC4B"/>
</svg>
