<svg width="21" height="20" viewBox="0 0 21 20" fill="none" xmlns="http://www.w3.org/2000/svg">
<path fill-rule="evenodd" clip-rule="evenodd" d="M13.8333 2.5H7.16667C4.86548 2.5 3 4.36548 3 6.66667V13.3333C3 15.6345 4.86548 17.5 7.16667 17.5H13.8333C16.1345 17.5 18 15.6345 18 13.3333V6.66667C18 4.36548 16.1345 2.5 13.8333 2.5ZM7.16667 0C3.48477 0 0.5 2.98477 0.5 6.66667V13.3333C0.5 17.0152 3.48477 20 7.16667 20H13.8333C17.5152 20 20.5 17.0152 20.5 13.3333V6.66667C20.5 2.98477 17.5152 0 13.8333 0H7.16667Z" fill="#1BAC4B"/>
</svg>
