<svg width="16" height="18" viewBox="0 0 16 18" fill="none" xmlns="http://www.w3.org/2000/svg">
<path fill-rule="evenodd" clip-rule="evenodd" d="M0.916992 7.59821C0.916992 3.76499 4.12023 0.666748 7.99486 0.666748C11.8804 0.666748 15.0837 3.76499 15.0837 7.59821C15.0837 9.52982 14.3812 11.3231 13.2249 12.8431C11.9493 14.5197 10.3771 15.9805 8.60744 17.1271C8.20242 17.3921 7.83689 17.4121 7.39237 17.1271C5.61261 15.9805 4.0404 14.5197 2.77574 12.8431C1.61865 11.3231 0.916992 9.52982 0.916992 7.59821ZM5.66218 7.81404C5.66218 9.09817 6.71004 10.1081 7.99486 10.1081C9.28053 10.1081 10.3385 9.09817 10.3385 7.81404C10.3385 6.53991 9.28053 5.48077 7.99486 5.48077C6.71004 5.48077 5.66218 6.53991 5.66218 7.81404Z" fill="white"/>
</svg>
