<svg width="20" height="20" viewBox="0 0 20 20" fill="none" xmlns="http://www.w3.org/2000/svg">
<path fill-rule="evenodd" clip-rule="evenodd" d="M18.3992 7.14611L19.1194 7.86611C19.6897 8.42611 19.9998 9.18611 19.9998 9.98611C20.0098 10.7861 19.6997 11.5471 19.1395 12.1161C19.1328 12.1234 19.1261 12.1299 19.1194 12.1363C19.1161 12.1396 19.1128 12.1428 19.1094 12.1461L18.3992 12.8561C18.1191 13.1361 17.959 13.5161 17.959 13.9171V14.9461C17.959 16.6061 16.6085 17.9571 14.9479 17.9571H13.9176C13.5174 17.9571 13.1373 18.1161 12.8572 18.3961L12.1369 19.1161C11.5467 19.7071 10.7764 19.9961 10.0061 19.9961C9.23586 19.9961 8.46558 19.7071 7.87537 19.1271L7.14511 18.3961C6.865 18.1161 6.48487 17.9571 6.08472 17.9571H5.05435C3.39375 17.9571 2.04326 16.6061 2.04326 14.9461V13.9171C2.04326 13.5161 1.8832 13.1361 1.6031 12.8461L0.882836 12.1361C-0.287588 10.9671 -0.297592 9.05611 0.872832 7.87711L1.6031 7.14611C1.8832 6.86611 2.04326 6.48611 2.04326 6.07611V5.05611C2.04326 3.39611 3.39375 2.04711 5.05435 2.04711H6.08472C6.48487 2.04711 6.865 1.88611 7.14511 1.60611L7.86537 0.886111C9.03579 -0.292889 10.9465 -0.292889 12.1269 0.877111L12.8572 1.60611C13.1373 1.88611 13.5174 2.04711 13.9176 2.04711H14.9479C16.6085 2.04711 17.959 3.39611 17.959 5.05611V6.08711C17.959 6.48611 18.1191 6.86611 18.3992 7.14611ZM7.42521 13.4461C7.66529 13.4461 7.88537 13.3561 8.04543 13.1861L13.1873 8.04711C13.5274 7.70711 13.5274 7.14611 13.1873 6.80611C12.8472 6.46711 12.297 6.46711 11.9569 6.80611L6.81499 11.9461C6.47486 12.2861 6.47486 12.8461 6.81499 13.1861C6.97504 13.3561 7.19512 13.4461 7.42521 13.4461ZM11.6968 12.5661C11.6968 13.0561 12.0869 13.4461 12.5771 13.4461C13.0572 13.4461 13.4474 13.0561 13.4474 12.5661C13.4474 12.0871 13.0572 11.6961 12.5771 11.6961C12.0869 11.6961 11.6968 12.0871 11.6968 12.5661ZM7.43521 6.55611C7.91539 6.55611 8.30553 6.94611 8.30553 7.42611C8.30553 7.91711 7.91539 8.30611 7.43521 8.30611C6.95504 8.30611 6.55489 7.91711 6.55489 7.42611C6.55489 6.94611 6.95504 6.55611 7.43521 6.55611Z" fill="#1BAC4B"/>
</svg>
