<svg width="16" height="18" viewBox="0 0 16 18" fill="none" xmlns="http://www.w3.org/2000/svg">
<path fill-rule="evenodd" clip-rule="evenodd" d="M0.916992 7.59797C0.916992 3.76475 4.12023 0.666504 7.99486 0.666504C11.8804 0.666504 15.0837 3.76475 15.0837 7.59797C15.0837 9.52958 14.3812 11.3229 13.2249 12.8428C11.9493 14.5194 10.3771 15.9802 8.60744 17.1269C8.20242 17.3919 7.83689 17.4119 7.39237 17.1269C5.61261 15.9802 4.0404 14.5194 2.77574 12.8428C1.61865 11.3229 0.916992 9.52958 0.916992 7.59797ZM5.66218 7.8138C5.66218 9.09793 6.71004 10.1079 7.99486 10.1079C9.28053 10.1079 10.3385 9.09793 10.3385 7.8138C10.3385 6.53967 9.28053 5.48053 7.99486 5.48053C6.71004 5.48053 5.66218 6.53967 5.66218 7.8138Z" fill="#212121"/>
</svg>
