<svg width="18" height="10" viewBox="0 0 18 10" fill="none" xmlns="http://www.w3.org/2000/svg">
<path fill-rule="evenodd" clip-rule="evenodd" d="M17 0H16C15.4477 0 15 0.419733 15 0.9375V9.0625C15 9.58027 15.4477 10 16 10H17C17.5523 10 18 9.58027 18 9.0625V0.9375C18 0.419733 17.5523 0 17 0ZM11.0001 2H12.0001C12.5524 2 13.0001 2.42981 13.0001 2.96V9.04C13.0001 9.57019 12.5524 10 12.0001 10H11.0001C10.4478 10 10.0001 9.57019 10.0001 9.04V2.96C10.0001 2.42981 10.4478 2 11.0001 2ZM7 4H6C5.44772 4 5 4.44772 5 5V9C5 9.55229 5.44772 10 6 10H7C7.55228 10 8 9.55229 8 9V5C8 4.44772 7.55228 4 7 4ZM2 6H1C0.447715 6 0 6.44772 0 7V9C0 9.55229 0.447715 10 1 10H2C2.55228 10 3 9.55229 3 9V7C3 6.44772 2.55228 6 2 6Z" fill="black"/>
</svg>
