<svg width="12" height="12" viewBox="0 0 12 12" fill="none" xmlns="http://www.w3.org/2000/svg">
<path d="M6.70497 6.00009L8.85497 3.85509C8.94912 3.76094 9.00202 3.63324 9.00202 3.50009C9.00202 3.36694 8.94912 3.23924 8.85497 3.14509C8.76082 3.05094 8.63312 2.99805 8.49997 2.99805C8.36682 2.99805 8.23912 3.05094 8.14497 3.14509L5.99997 5.29509L3.85497 3.14509C3.76082 3.05094 3.63312 2.99805 3.49997 2.99805C3.36682 2.99805 3.23912 3.05094 3.14497 3.14509C3.05082 3.23924 2.99792 3.36694 2.99792 3.50009C2.99792 3.63324 3.05082 3.76094 3.14497 3.85509L5.29497 6.00009L3.14497 8.14509C3.09811 8.19157 3.06091 8.24687 3.03552 8.3078C3.01014 8.36873 2.99707 8.43409 2.99707 8.50009C2.99707 8.5661 3.01014 8.63145 3.03552 8.69238C3.06091 8.75331 3.09811 8.80861 3.14497 8.85509C3.19145 8.90196 3.24675 8.93915 3.30768 8.96454C3.36861 8.98992 3.43396 9.00299 3.49997 9.00299C3.56598 9.00299 3.63133 8.98992 3.69226 8.96454C3.75319 8.93915 3.80849 8.90196 3.85497 8.85509L5.99997 6.70509L8.14497 8.85509C8.19145 8.90196 8.24675 8.93915 8.30768 8.96454C8.36861 8.98992 8.43396 9.00299 8.49997 9.00299C8.56598 9.00299 8.63133 8.98992 8.69226 8.96454C8.75319 8.93915 8.80849 8.90196 8.85497 8.85509C8.90183 8.80861 8.93903 8.75331 8.96442 8.69238C8.9898 8.63145 9.00287 8.5661 9.00287 8.50009C9.00287 8.43409 8.9898 8.36873 8.96442 8.3078C8.93903 8.24687 8.90183 8.19157 8.85497 8.14509L6.70497 6.00009Z" fill="white"/>
</svg>
