<svg width="20" height="20" viewBox="0 0 20 20" fill="none" xmlns="http://www.w3.org/2000/svg">
<path d="M9.0575 13.859C9.00917 13.8119 8.8025 13.6342 8.6325 13.4685C7.56333 12.4976 5.81333 9.96473 5.27917 8.63902C5.19333 8.43769 5.01167 7.92868 5 7.65672C5 7.39613 5.06 7.14771 5.18167 6.91066C5.35167 6.61516 5.61917 6.37811 5.935 6.24821C6.15417 6.1646 6.81 6.03471 6.82167 6.03471C7.53917 5.90481 8.705 5.83337 9.99333 5.83337C11.2208 5.83337 12.3392 5.90481 13.0675 6.01116C13.0792 6.02334 13.8942 6.15323 14.1733 6.2953C14.6833 6.55589 15 7.06491 15 7.60964V7.65672C14.9875 8.01149 14.6708 8.75755 14.6592 8.75755C14.1242 10.0118 12.46 12.4862 11.3542 13.4807C11.3542 13.4807 11.07 13.7608 10.8925 13.8826C10.6375 14.0725 10.3217 14.1667 10.0058 14.1667C9.65333 14.1667 9.325 14.0604 9.0575 13.859Z" fill="#212121"/>
</svg>
