<svg width="24" height="25" viewBox="0 0 24 25" fill="none" xmlns="http://www.w3.org/2000/svg">
<path d="M19.3248 9.96826C19.3248 9.96826 18.7818 16.7033 18.4668 19.5403C18.3168 20.8953 17.4798 21.6893 16.1088 21.7143C13.4998 21.7613 10.8878 21.7643 8.27979 21.7093C6.96079 21.6823 6.13779 20.8783 5.99079 19.5473C5.67379 16.6853 5.13379 9.96826 5.13379 9.96826" stroke="#757575" stroke-width="1.5" stroke-linecap="round" stroke-linejoin="round"/>
<path d="M20.708 6.73975H3.75" stroke="#757575" stroke-width="1.5" stroke-linecap="round" stroke-linejoin="round"/>
<path d="M17.4406 6.73973C16.6556 6.73973 15.9796 6.18473 15.8256 5.41573L15.5826 4.19973C15.4326 3.63873 14.9246 3.25073 14.3456 3.25073H10.1126C9.53358 3.25073 9.02558 3.63873 8.87558 4.19973L8.63258 5.41573C8.47858 6.18473 7.80258 6.73973 7.01758 6.73973" stroke="#757575" stroke-width="1.5" stroke-linecap="round" stroke-linejoin="round"/>
</svg>
