<svg width="28" height="28" viewBox="0 0 28 28" fill="none" xmlns="http://www.w3.org/2000/svg">
<path fill-rule="evenodd" clip-rule="evenodd" d="M13.9679 23.7629C10.1891 23.7629 6.96094 23.1913 6.96094 20.9023C6.96094 18.6133 10.1681 16.6206 13.9679 16.6206C17.7468 16.6206 20.9749 18.5946 20.9749 20.8824C20.9749 23.1703 17.7678 23.7629 13.9679 23.7629Z" stroke="#212121" stroke-width="1.5" stroke-linecap="round" stroke-linejoin="round"/>
<path fill-rule="evenodd" clip-rule="evenodd" d="M13.9673 13.3568C16.4476 13.3568 18.4589 11.3466 18.4589 8.8663C18.4589 6.38597 16.4476 4.37463 13.9673 4.37463C11.4869 4.37463 9.4756 6.38597 9.4756 8.8663C9.4686 11.3373 11.4636 13.3486 13.9358 13.3568H13.9673Z" stroke="#212121" stroke-width="1.5" stroke-linecap="round" stroke-linejoin="round"/>
<path d="M21.4222 12.1235C22.8653 11.7374 23.9294 10.4214 23.9294 8.85454C23.9294 7.22004 22.7708 5.85504 21.2285 5.54004" stroke="#212121" stroke-width="1.5" stroke-linecap="round" stroke-linejoin="round"/>
<path d="M22.0996 15.8018C24.1459 15.8018 25.8936 17.1889 25.8936 18.4279C25.8936 19.1571 25.2904 19.9516 24.3758 20.1663" stroke="#212121" stroke-width="1.5" stroke-linecap="round" stroke-linejoin="round"/>
<path d="M6.51419 12.1235C5.06986 11.7374 4.00586 10.4214 4.00586 8.85454C4.00586 7.22004 5.16553 5.85504 6.70669 5.54004" stroke="#212121" stroke-width="1.5" stroke-linecap="round" stroke-linejoin="round"/>
<path d="M5.83502 15.8018C3.78868 15.8018 2.04102 17.1889 2.04102 18.4279C2.04102 19.1571 2.64418 19.9516 3.56002 20.1663" stroke="#212121" stroke-width="1.5" stroke-linecap="round" stroke-linejoin="round"/>
</svg>
